%TF.GenerationSoftware,KiCad,Pcbnew,8.0.7*%
%TF.CreationDate,2025-02-28T11:10:52-08:00*%
%TF.ProjectId,Untitled,556e7469-746c-4656-942e-6b696361645f,rev?*%
%TF.SameCoordinates,Original*%
%TF.FileFunction,Legend,Top*%
%TF.FilePolarity,Positive*%
%FSLAX46Y46*%
G04 Gerber Fmt 4.6, Leading zero omitted, Abs format (unit mm)*
G04 Created by KiCad (PCBNEW 8.0.7) date 2025-02-28 11:10:52*
%MOMM*%
%LPD*%
G01*
G04 APERTURE LIST*
%ADD10C,0.150000*%
%ADD11C,0.127000*%
%ADD12C,0.200000*%
%ADD13C,0.120000*%
G04 APERTURE END LIST*
D10*
X143283095Y-63979819D02*
X143283095Y-64789342D01*
X143283095Y-64789342D02*
X143330714Y-64884580D01*
X143330714Y-64884580D02*
X143378333Y-64932200D01*
X143378333Y-64932200D02*
X143473571Y-64979819D01*
X143473571Y-64979819D02*
X143664047Y-64979819D01*
X143664047Y-64979819D02*
X143759285Y-64932200D01*
X143759285Y-64932200D02*
X143806904Y-64884580D01*
X143806904Y-64884580D02*
X143854523Y-64789342D01*
X143854523Y-64789342D02*
X143854523Y-63979819D01*
X144854523Y-64979819D02*
X144283095Y-64979819D01*
X144568809Y-64979819D02*
X144568809Y-63979819D01*
X144568809Y-63979819D02*
X144473571Y-64122676D01*
X144473571Y-64122676D02*
X144378333Y-64217914D01*
X144378333Y-64217914D02*
X144283095Y-64265533D01*
X172666667Y-99247200D02*
X172809524Y-99294819D01*
X172809524Y-99294819D02*
X173047619Y-99294819D01*
X173047619Y-99294819D02*
X173142857Y-99247200D01*
X173142857Y-99247200D02*
X173190476Y-99199580D01*
X173190476Y-99199580D02*
X173238095Y-99104342D01*
X173238095Y-99104342D02*
X173238095Y-99009104D01*
X173238095Y-99009104D02*
X173190476Y-98913866D01*
X173190476Y-98913866D02*
X173142857Y-98866247D01*
X173142857Y-98866247D02*
X173047619Y-98818628D01*
X173047619Y-98818628D02*
X172857143Y-98771009D01*
X172857143Y-98771009D02*
X172761905Y-98723390D01*
X172761905Y-98723390D02*
X172714286Y-98675771D01*
X172714286Y-98675771D02*
X172666667Y-98580533D01*
X172666667Y-98580533D02*
X172666667Y-98485295D01*
X172666667Y-98485295D02*
X172714286Y-98390057D01*
X172714286Y-98390057D02*
X172761905Y-98342438D01*
X172761905Y-98342438D02*
X172857143Y-98294819D01*
X172857143Y-98294819D02*
X173095238Y-98294819D01*
X173095238Y-98294819D02*
X173238095Y-98342438D01*
X173571429Y-98294819D02*
X173809524Y-99294819D01*
X173809524Y-99294819D02*
X174000000Y-98580533D01*
X174000000Y-98580533D02*
X174190476Y-99294819D01*
X174190476Y-99294819D02*
X174428572Y-98294819D01*
X175333333Y-99294819D02*
X174761905Y-99294819D01*
X175047619Y-99294819D02*
X175047619Y-98294819D01*
X175047619Y-98294819D02*
X174952381Y-98437676D01*
X174952381Y-98437676D02*
X174857143Y-98532914D01*
X174857143Y-98532914D02*
X174761905Y-98580533D01*
X167154819Y-83833333D02*
X167869104Y-83833333D01*
X167869104Y-83833333D02*
X168011961Y-83880952D01*
X168011961Y-83880952D02*
X168107200Y-83976190D01*
X168107200Y-83976190D02*
X168154819Y-84119047D01*
X168154819Y-84119047D02*
X168154819Y-84214285D01*
X168154819Y-82833333D02*
X168154819Y-83404761D01*
X168154819Y-83119047D02*
X167154819Y-83119047D01*
X167154819Y-83119047D02*
X167297676Y-83214285D01*
X167297676Y-83214285D02*
X167392914Y-83309523D01*
X167392914Y-83309523D02*
X167440533Y-83404761D01*
X173214285Y-119313509D02*
X173357142Y-119361128D01*
X173357142Y-119361128D02*
X173404761Y-119408747D01*
X173404761Y-119408747D02*
X173452380Y-119503985D01*
X173452380Y-119503985D02*
X173452380Y-119646842D01*
X173452380Y-119646842D02*
X173404761Y-119742080D01*
X173404761Y-119742080D02*
X173357142Y-119789700D01*
X173357142Y-119789700D02*
X173261904Y-119837319D01*
X173261904Y-119837319D02*
X172880952Y-119837319D01*
X172880952Y-119837319D02*
X172880952Y-118837319D01*
X172880952Y-118837319D02*
X173214285Y-118837319D01*
X173214285Y-118837319D02*
X173309523Y-118884938D01*
X173309523Y-118884938D02*
X173357142Y-118932557D01*
X173357142Y-118932557D02*
X173404761Y-119027795D01*
X173404761Y-119027795D02*
X173404761Y-119123033D01*
X173404761Y-119123033D02*
X173357142Y-119218271D01*
X173357142Y-119218271D02*
X173309523Y-119265890D01*
X173309523Y-119265890D02*
X173214285Y-119313509D01*
X173214285Y-119313509D02*
X172880952Y-119313509D01*
X173738095Y-118837319D02*
X174309523Y-118837319D01*
X174023809Y-119837319D02*
X174023809Y-118837319D01*
X175166666Y-119837319D02*
X174595238Y-119837319D01*
X174880952Y-119837319D02*
X174880952Y-118837319D01*
X174880952Y-118837319D02*
X174785714Y-118980176D01*
X174785714Y-118980176D02*
X174690476Y-119075414D01*
X174690476Y-119075414D02*
X174595238Y-119123033D01*
D11*
%TO.C,U1*%
X141120000Y-135500000D02*
X141120000Y-72760000D01*
X141120000Y-72760000D02*
X166520000Y-72760000D01*
X166520000Y-72760000D02*
X166520000Y-135500000D01*
X166520000Y-135500000D02*
X141120000Y-135500000D01*
D12*
X140204000Y-74158000D02*
G75*
G02*
X140004000Y-74158000I-100000J0D01*
G01*
X140004000Y-74158000D02*
G75*
G02*
X140204000Y-74158000I100000J0D01*
G01*
D13*
%TO.C,SW1*%
X172670000Y-99840000D02*
X174000000Y-99840000D01*
X172670000Y-101170000D02*
X172670000Y-99840000D01*
X172670000Y-102440000D02*
X172670000Y-107580000D01*
X172670000Y-102440000D02*
X175330000Y-102440000D01*
X172670000Y-107580000D02*
X175330000Y-107580000D01*
X175330000Y-102440000D02*
X175330000Y-107580000D01*
%TO.C,J1*%
X168400000Y-90300000D02*
X180600000Y-90300000D01*
X168400000Y-90300000D02*
X168400000Y-76700000D01*
X180600000Y-76700000D02*
X180600000Y-90300000D01*
X180600000Y-76700000D02*
X168400000Y-76700000D01*
%TO.C,BT1*%
X170140000Y-120472500D02*
X177860000Y-120472500D01*
X170140000Y-121692500D02*
X171360000Y-121692500D01*
X170140000Y-128892500D02*
X170140000Y-120472500D01*
X171360000Y-121692500D02*
X171360000Y-126692500D01*
X171360000Y-125692500D02*
X176640000Y-125692500D01*
X171360000Y-126692500D02*
X170140000Y-126692500D01*
X171360000Y-126692500D02*
X171360000Y-128892500D01*
X171360000Y-128892500D02*
X170140000Y-128892500D01*
X172430000Y-122272500D02*
X172750000Y-122192500D01*
X172430000Y-125692500D02*
X172430000Y-122272500D01*
X172450000Y-129382500D02*
X173050000Y-129382500D01*
X172750000Y-122192500D02*
X173070000Y-122272500D01*
X172750000Y-125692500D02*
X172430000Y-125692500D01*
X172750000Y-128782500D02*
X172450000Y-129382500D01*
X173050000Y-129382500D02*
X172750000Y-128782500D01*
X173070000Y-122272500D02*
X173070000Y-125692500D01*
X173070000Y-125692500D02*
X172750000Y-125692500D01*
X173920000Y-126692500D02*
X174080000Y-126692500D01*
X174930000Y-122272500D02*
X175250000Y-122192500D01*
X174930000Y-125692500D02*
X174930000Y-122272500D01*
X175250000Y-122192500D02*
X175570000Y-122272500D01*
X175250000Y-125692500D02*
X174930000Y-125692500D01*
X175570000Y-122272500D02*
X175570000Y-125692500D01*
X175570000Y-125692500D02*
X175250000Y-125692500D01*
X176640000Y-121692500D02*
X176640000Y-126692500D01*
X176640000Y-126692500D02*
X177860000Y-126692500D01*
X176640000Y-128892500D02*
X176640000Y-126692500D01*
X177860000Y-120472500D02*
X177860000Y-128892500D01*
X177860000Y-121692500D02*
X176640000Y-121692500D01*
X177860000Y-128892500D02*
X176640000Y-128892500D01*
%TD*%
M02*
