%TF.GenerationSoftware,KiCad,Pcbnew,8.0.7*%
%TF.CreationDate,2025-02-28T11:10:47-08:00*%
%TF.ProjectId,Untitled,556e7469-746c-4656-942e-6b696361645f,rev?*%
%TF.SameCoordinates,Original*%
%TF.FileFunction,Plated,1,2,PTH,Drill*%
%TF.FilePolarity,Positive*%
%FSLAX46Y46*%
G04 Gerber Fmt 4.6, Leading zero omitted, Abs format (unit mm)*
G04 Created by KiCad (PCBNEW 8.0.7) date 2025-02-28 11:10:47*
%MOMM*%
%LPD*%
G01*
G04 APERTURE LIST*
%TA.AperFunction,ComponentDrill*%
%ADD10C,1.000000*%
%TD*%
%TA.AperFunction,ComponentDrill*%
%ADD11C,1.020000*%
%TD*%
%TA.AperFunction,ComponentDrill*%
%ADD12C,1.200000*%
%TD*%
G04 APERTURE END LIST*
D10*
%TO.C,BT1*%
X172750000Y-127282500D03*
%TO.C,SW1*%
X174000000Y-101170000D03*
X174000000Y-103710000D03*
X174000000Y-106250000D03*
%TO.C,BT1*%
X175250000Y-127282500D03*
D11*
%TO.C,U1*%
X142390000Y-74160000D03*
X142390000Y-76700000D03*
X142390000Y-79240000D03*
X142390000Y-81780000D03*
X142390000Y-84320000D03*
X142390000Y-86860000D03*
X142390000Y-89400000D03*
X142390000Y-91940000D03*
X142390000Y-94480000D03*
X142390000Y-97020000D03*
X142390000Y-99560000D03*
X142390000Y-102100000D03*
X142390000Y-104640000D03*
X142390000Y-107180000D03*
X142390000Y-109720000D03*
X142390000Y-112260000D03*
X142390000Y-114800000D03*
X142390000Y-117340000D03*
X142390000Y-119880000D03*
X142390000Y-122420000D03*
X142390000Y-124960000D03*
X142390000Y-127500000D03*
X165250000Y-74160000D03*
X165250000Y-76700000D03*
X165250000Y-79240000D03*
X165250000Y-81780000D03*
X165250000Y-84320000D03*
X165250000Y-86860000D03*
X165250000Y-89400000D03*
X165250000Y-91940000D03*
X165250000Y-94480000D03*
X165250000Y-97020000D03*
X165250000Y-99560000D03*
X165250000Y-102100000D03*
X165250000Y-104640000D03*
X165250000Y-107180000D03*
X165250000Y-109720000D03*
X165250000Y-112260000D03*
X165250000Y-114800000D03*
X165250000Y-117340000D03*
X165250000Y-119880000D03*
X165250000Y-122420000D03*
X165250000Y-124960000D03*
X165250000Y-127500000D03*
D12*
%TO.C,J1*%
X172000000Y-79500000D03*
X172000000Y-83500000D03*
X172000000Y-87500000D03*
X177000000Y-79500000D03*
X177000000Y-83500000D03*
X177000000Y-87500000D03*
M02*
