%TF.GenerationSoftware,KiCad,Pcbnew,8.0.7*%
%TF.CreationDate,2025-02-28T11:10:52-08:00*%
%TF.ProjectId,Untitled,556e7469-746c-4656-942e-6b696361645f,rev?*%
%TF.SameCoordinates,Original*%
%TF.FileFunction,Copper,L2,Bot*%
%TF.FilePolarity,Positive*%
%FSLAX46Y46*%
G04 Gerber Fmt 4.6, Leading zero omitted, Abs format (unit mm)*
G04 Created by KiCad (PCBNEW 8.0.7) date 2025-02-28 11:10:52*
%MOMM*%
%LPD*%
G01*
G04 APERTURE LIST*
G04 Aperture macros list*
%AMRoundRect*
0 Rectangle with rounded corners*
0 $1 Rounding radius*
0 $2 $3 $4 $5 $6 $7 $8 $9 X,Y pos of 4 corners*
0 Add a 4 corners polygon primitive as box body*
4,1,4,$2,$3,$4,$5,$6,$7,$8,$9,$2,$3,0*
0 Add four circle primitives for the rounded corners*
1,1,$1+$1,$2,$3*
1,1,$1+$1,$4,$5*
1,1,$1+$1,$6,$7*
1,1,$1+$1,$8,$9*
0 Add four rect primitives between the rounded corners*
20,1,$1+$1,$2,$3,$4,$5,0*
20,1,$1+$1,$4,$5,$6,$7,0*
20,1,$1+$1,$6,$7,$8,$9,0*
20,1,$1+$1,$8,$9,$2,$3,0*%
G04 Aperture macros list end*
%TA.AperFunction,ComponentPad*%
%ADD10C,1.530000*%
%TD*%
%TA.AperFunction,ComponentPad*%
%ADD11R,1.530000X1.530000*%
%TD*%
%TA.AperFunction,ComponentPad*%
%ADD12R,1.700000X1.700000*%
%TD*%
%TA.AperFunction,ComponentPad*%
%ADD13O,1.700000X1.700000*%
%TD*%
%TA.AperFunction,ComponentPad*%
%ADD14R,2.000000X2.000000*%
%TD*%
%TA.AperFunction,ComponentPad*%
%ADD15C,2.000000*%
%TD*%
%TA.AperFunction,ComponentPad*%
%ADD16RoundRect,0.250000X-0.600000X-0.750000X0.600000X-0.750000X0.600000X0.750000X-0.600000X0.750000X0*%
%TD*%
%TA.AperFunction,ComponentPad*%
%ADD17O,1.700000X2.000000*%
%TD*%
%TA.AperFunction,Conductor*%
%ADD18C,0.200000*%
%TD*%
G04 APERTURE END LIST*
D10*
%TO.P,U1,J1_22,GND*%
%TO.N,Net-(BT1--)*%
X142390000Y-127500000D03*
%TO.P,U1,J3_22,GND*%
X165250000Y-127500000D03*
%TO.P,U1,J1_21,5V0*%
%TO.N,unconnected-(U1-5V0-PadJ1_21)*%
X142390000Y-124960000D03*
%TO.P,U1,J1_20,GPIO14*%
%TO.N,unconnected-(U1-GPIO14-PadJ1_20)*%
X142390000Y-122420000D03*
%TO.P,U1,J1_19,GPIO13*%
%TO.N,unconnected-(U1-GPIO13-PadJ1_19)*%
X142390000Y-119880000D03*
%TO.P,U1,J1_18,GPIO12*%
%TO.N,Net-(J1-Pin_1)*%
X142390000Y-117340000D03*
%TO.P,U1,J1_17,GPIO11*%
%TO.N,Net-(J1-Pin_2)*%
X142390000Y-114800000D03*
%TO.P,U1,J1_16,GPIO10*%
%TO.N,Net-(J1-Pin_4)*%
X142390000Y-112260000D03*
%TO.P,U1,J1_15,GPIO9*%
%TO.N,unconnected-(U1-GPIO9-PadJ1_15)*%
X142390000Y-109720000D03*
%TO.P,U1,J1_14,GPIO46*%
%TO.N,unconnected-(U1-GPIO46-PadJ1_14)*%
X142390000Y-107180000D03*
%TO.P,U1,J1_13,GPIO3*%
%TO.N,unconnected-(U1-GPIO3-PadJ1_13)*%
X142390000Y-104640000D03*
%TO.P,U1,J1_12,GPIO8*%
%TO.N,unconnected-(U1-GPIO8-PadJ1_12)*%
X142390000Y-102100000D03*
%TO.P,U1,J1_11,GPIO18*%
%TO.N,unconnected-(U1-GPIO18-PadJ1_11)*%
X142390000Y-99560000D03*
%TO.P,U1,J1_10,GPIO17*%
%TO.N,unconnected-(U1-GPIO17-PadJ1_10)*%
X142390000Y-97020000D03*
%TO.P,U1,J1_9,GPIO16*%
%TO.N,unconnected-(U1-GPIO16-PadJ1_9)*%
X142390000Y-94480000D03*
%TO.P,U1,J1_8,GPIO15*%
%TO.N,unconnected-(U1-GPIO15-PadJ1_8)*%
X142390000Y-91940000D03*
%TO.P,U1,J1_7,GPIO7*%
%TO.N,unconnected-(U1-GPIO7-PadJ1_7)*%
X142390000Y-89400000D03*
%TO.P,U1,J1_6,GPIO6*%
%TO.N,unconnected-(U1-GPIO6-PadJ1_6)*%
X142390000Y-86860000D03*
%TO.P,U1,J1_5,GPIO5*%
%TO.N,unconnected-(U1-GPIO5-PadJ1_5)*%
X142390000Y-84320000D03*
%TO.P,U1,J1_4,GPIO4*%
%TO.N,unconnected-(U1-GPIO4-PadJ1_4)*%
X142390000Y-81780000D03*
%TO.P,U1,J1_3,RST*%
%TO.N,unconnected-(U1-RST-PadJ1_3)*%
X142390000Y-79240000D03*
%TO.P,U1,J1_2,3V3*%
%TO.N,Net-(J1-Pin_5)*%
X142390000Y-76700000D03*
D11*
%TO.P,U1,J1_1,3V3*%
X142390000Y-74160000D03*
D10*
%TO.P,U1,J3_21,GND*%
%TO.N,Net-(BT1--)*%
X165250000Y-124960000D03*
%TO.P,U1,J3_20,USB_D-/GPIO19*%
%TO.N,unconnected-(U1-USB_D-{slash}GPIO19-PadJ3_20)*%
X165250000Y-122420000D03*
%TO.P,U1,J3_19,USB_D+/GPIO20*%
%TO.N,unconnected-(U1-USB_D+{slash}GPIO20-PadJ3_19)*%
X165250000Y-119880000D03*
%TO.P,U1,J3_18,GPIO21*%
%TO.N,unconnected-(U1-GPIO21-PadJ3_18)*%
X165250000Y-117340000D03*
%TO.P,U1,J3_17,GPIO47*%
%TO.N,unconnected-(U1-GPIO47-PadJ3_17)*%
X165250000Y-114800000D03*
%TO.P,U1,J3_16,GPIO48*%
%TO.N,unconnected-(U1-GPIO48-PadJ3_16)*%
X165250000Y-112260000D03*
%TO.P,U1,J3_15,GPIO45*%
%TO.N,unconnected-(U1-GPIO45-PadJ3_15)*%
X165250000Y-109720000D03*
%TO.P,U1,J3_14,GPIO0*%
%TO.N,unconnected-(U1-GPIO0-PadJ3_14)*%
X165250000Y-107180000D03*
%TO.P,U1,J3_13,GPIO35*%
%TO.N,unconnected-(U1-GPIO35-PadJ3_13)*%
X165250000Y-104640000D03*
%TO.P,U1,J3_12,GPIO36*%
%TO.N,unconnected-(U1-GPIO36-PadJ3_12)*%
X165250000Y-102100000D03*
%TO.P,U1,J3_11,GPIO37*%
%TO.N,unconnected-(U1-GPIO37-PadJ3_11)*%
X165250000Y-99560000D03*
%TO.P,U1,J3_10,GPIO38*%
%TO.N,unconnected-(U1-GPIO38-PadJ3_10)*%
X165250000Y-97020000D03*
%TO.P,U1,J3_9,MTCK/GPIO39*%
%TO.N,unconnected-(U1-MTCK{slash}GPIO39-PadJ3_9)*%
X165250000Y-94480000D03*
%TO.P,U1,J3_8,MTDO/GPIO40*%
%TO.N,unconnected-(U1-MTDO{slash}GPIO40-PadJ3_8)*%
X165250000Y-91940000D03*
%TO.P,U1,J3_7,MTDI/GPIO41*%
%TO.N,unconnected-(U1-MTDI{slash}GPIO41-PadJ3_7)*%
X165250000Y-89400000D03*
%TO.P,U1,J3_6,MTMS/GPIO42*%
%TO.N,unconnected-(U1-MTMS{slash}GPIO42-PadJ3_6)*%
X165250000Y-86860000D03*
%TO.P,U1,J3_5,GPIO2*%
%TO.N,unconnected-(U1-GPIO2-PadJ3_5)*%
X165250000Y-84320000D03*
%TO.P,U1,J3_4,GPIO1*%
%TO.N,unconnected-(U1-GPIO1-PadJ3_4)*%
X165250000Y-81780000D03*
%TO.P,U1,J3_3,U0RXD/GPIO44*%
%TO.N,unconnected-(U1-U0RXD{slash}GPIO44-PadJ3_3)*%
X165250000Y-79240000D03*
%TO.P,U1,J3_2,U0TXD/GPIO43*%
%TO.N,unconnected-(U1-U0TXD{slash}GPIO43-PadJ3_2)*%
X165250000Y-76700000D03*
%TO.P,U1,J3_1,GND*%
%TO.N,Net-(BT1--)*%
X165250000Y-74160000D03*
%TD*%
D12*
%TO.P,SW1,1,C*%
%TO.N,unconnected-(SW1-C-Pad1)*%
X174000000Y-101170000D03*
D13*
%TO.P,SW1,2,B*%
%TO.N,Net-(BT1-+)*%
X174000000Y-103710000D03*
%TO.P,SW1,3,A*%
%TO.N,Net-(J1-Pin_5)*%
X174000000Y-106250000D03*
%TD*%
D14*
%TO.P,J1,1,Pin_1*%
%TO.N,Net-(J1-Pin_1)*%
X172000000Y-87500000D03*
D15*
%TO.P,J1,2,Pin_2*%
%TO.N,Net-(J1-Pin_2)*%
X172000000Y-83500000D03*
%TO.P,J1,3,Pin_3*%
%TO.N,unconnected-(J1-Pin_3-Pad3)*%
X172000000Y-79500000D03*
%TO.P,J1,4,Pin_4*%
%TO.N,Net-(J1-Pin_4)*%
X177000000Y-87500000D03*
%TO.P,J1,5,Pin_5*%
%TO.N,Net-(J1-Pin_5)*%
X177000000Y-83500000D03*
%TO.P,J1,6,Pin_6*%
%TO.N,Net-(BT1--)*%
X177000000Y-79500000D03*
%TD*%
D16*
%TO.P,BT1,1,+*%
%TO.N,Net-(BT1-+)*%
X172750000Y-127282500D03*
D17*
%TO.P,BT1,2,-*%
%TO.N,Net-(BT1--)*%
X175250000Y-127282500D03*
%TD*%
D18*
%TO.N,Net-(J1-Pin_4)*%
X177000000Y-87500000D02*
X175700000Y-86200000D01*
X141325000Y-113325000D02*
X142390000Y-112260000D01*
X175700000Y-86200000D02*
X169956138Y-86200000D01*
X142831138Y-115865000D02*
X141948862Y-115865000D01*
X169956138Y-86200000D02*
X169956138Y-88740000D01*
X169956138Y-88740000D02*
X165691138Y-93005000D01*
X164750686Y-93005000D02*
X143502843Y-114252843D01*
X165691138Y-93005000D02*
X164750686Y-93005000D01*
X143502843Y-114252843D02*
X143502843Y-115193295D01*
X143502843Y-115193295D02*
X142831138Y-115865000D01*
X141948862Y-115865000D02*
X141325000Y-115241138D01*
X141325000Y-115241138D02*
X141325000Y-113325000D01*
%TO.N,Net-(J1-Pin_5)*%
X177000000Y-83500000D02*
X174300000Y-80800000D01*
X174300000Y-80800000D02*
X165776138Y-80800000D01*
X165776138Y-80800000D02*
X165476138Y-80500000D01*
X165476138Y-80500000D02*
X146190000Y-80500000D01*
X146190000Y-80500000D02*
X142390000Y-76700000D01*
%TO.N,Net-(BT1--)*%
X177000000Y-79500000D02*
X172500000Y-75000000D01*
X166090000Y-75000000D02*
X165250000Y-74160000D01*
X172500000Y-75000000D02*
X166090000Y-75000000D01*
%TO.N,Net-(J1-Pin_1)*%
X172000000Y-87500000D02*
X172000000Y-91776138D01*
X161645000Y-98085000D02*
X142390000Y-117340000D01*
X172000000Y-91776138D02*
X165691138Y-98085000D01*
X165691138Y-98085000D02*
X161645000Y-98085000D01*
%TO.N,Net-(J1-Pin_2)*%
X172000000Y-83500000D02*
X167165000Y-88335000D01*
X164808862Y-88335000D02*
X143455000Y-109688862D01*
X167165000Y-88335000D02*
X164808862Y-88335000D01*
X143455000Y-113735000D02*
X142390000Y-114800000D01*
X143455000Y-109688862D02*
X143455000Y-113735000D01*
%TD*%
M02*
